<svg xmlns="http://www.w3.org/2000/svg" viewBox="0 0 440.32 112.82"><defs><style>.cls-1{fill:#fff;}</style></defs><title>Recurso 1</title><g id="Capa_2" data-name="Capa 2"><g id="Capa_1-2" data-name="Capa 1"><path class="cls-1" d="M191,86.35c0-14.29,12-26.28,26.06-26.28a25.7,25.7,0,0,1,18.29,7.77l-3.92,4A19.85,19.85,0,0,0,217.1,65.4c-11,0-20.21,9.62-20.21,21s9.25,21,20.21,21a19.85,19.85,0,0,0,14.36-6.44l3.92,4a26,26,0,0,1-18.29,7.77C203,112.71,191,100.64,191,86.35Z"/><path class="cls-1" d="M217.1,112.82c-14.19,0-26.17-12.12-26.17-26.47S202.91,60,217.1,60a25.64,25.64,0,0,1,18.37,7.81l.08.08-.08.08-4,4.08-.08-.08a19.85,19.85,0,0,0-14.28-6.41c-10.9,0-20.1,9.54-20.1,20.84s9.2,20.91,20.1,20.91a19.85,19.85,0,0,0,14.28-6.41l.08-.08,4.08,4.16-.08.08A26.26,26.26,0,0,1,217.1,112.82Zm0-52.64c-14.06,0-25.95,12-25.95,26.17S203,112.6,217.1,112.6a26,26,0,0,0,18.13-7.66l-3.77-3.84a20.06,20.06,0,0,1-14.36,6.39c-11,0-20.32-9.68-20.32-21.14s9.31-21.06,20.32-21.06a20.07,20.07,0,0,1,14.36,6.39l3.77-3.84A25.41,25.41,0,0,0,217.1,60.18Z"/><path class="cls-1" d="M243.16,60.07h5.55v51.75h-5.55Z"/><path class="cls-1" d="M248.82,111.93H243V60h5.77Zm-5.55-.22h5.33V60.18h-5.33Z"/><path class="cls-1" d="M259,62.88a3.66,3.66,0,1,1,3.7,3.7A3.7,3.7,0,0,1,259,62.88Zm.89,10.66h5.55v38.27h-5.55Z"/><path class="cls-1" d="M265.55,111.93h-5.77V73.43h5.77Zm-5.55-.22h5.33V73.65H260Zm2.7-45a3.78,3.78,0,1,1,3.74-3.81A3.82,3.82,0,0,1,262.7,66.7Zm0-7.33a3.55,3.55,0,1,0,3.52,3.52A3.56,3.56,0,0,0,262.7,59.37Z"/><path class="cls-1" d="M309.19,87.46v24.36h-5.55V88.2c0-6.22-3.92-10.59-9.55-10.59-6.44,0-11.85,4.52-11.85,9.85v24.36h-5.55V73.54h5.55v6.14a14.5,14.5,0,0,1,12.59-7C303.27,72.66,309.19,78.8,309.19,87.46Z"/><path class="cls-1" d="M309.31,111.93h-5.77V88.2c0-6.17-3.88-10.47-9.44-10.47-6.36,0-11.73,4.46-11.73,9.74v24.47h-5.77V73.43h5.77v5.84a14.72,14.72,0,0,1,12.47-6.72c8.52,0,14.47,6.13,14.47,14.92Zm-5.55-.22h5.33V87.46c0-8.65-5.86-14.69-14.25-14.69-5.19,0-10.21,2.8-12.49,7l-.21.38V73.65h-5.33v38.05h5.33V87.46c0-5.4,5.48-10,12-10,5.69,0,9.66,4.4,9.66,10.7Z"/><path class="cls-1" d="M319.49,62.88a3.66,3.66,0,1,1,3.7,3.7A3.7,3.7,0,0,1,319.49,62.88Zm.89,10.66h5.55v38.27h-5.55Z"/><path class="cls-1" d="M326,111.93h-5.77V73.43H326Zm-5.55-.22h5.33V73.65h-5.33Zm2.7-45a3.78,3.78,0,1,1,3.74-3.81A3.82,3.82,0,0,1,323.19,66.7Zm0-7.33a3.55,3.55,0,1,0,3.52,3.52A3.56,3.56,0,0,0,323.19,59.37Z"/><path class="cls-1" d="M356.65,110.26a11.64,11.64,0,0,1-7.11,2.44c-5.48,0-9.33-4.07-9.33-9.77V78.5h-6v-5h6V63h5.55V73.54h9.4v5h-9.4v24.43c0,2.81,1.93,4.81,4.15,4.81a5.51,5.51,0,0,0,4-1.55Z"/><path class="cls-1" d="M349.54,112.82c-5.56,0-9.44-4.06-9.44-9.88V78.62h-6V73.43h6V62.92h5.77V73.43h9.4v5.18h-9.4v24.32c0,2.64,1.77,4.7,4,4.7a5.42,5.42,0,0,0,3.92-1.52l.1-.1.08.12,2.8,4.16-.08.06A11.75,11.75,0,0,1,349.54,112.82ZM334.33,78.39h6v24.54c0,5.69,3.79,9.66,9.22,9.66a11.52,11.52,0,0,0,7-2.36l-2.6-3.87a5.72,5.72,0,0,1-4,1.49c-2.39,0-4.26-2.16-4.26-4.92V78.39h9.4V73.65h-9.4V63.14h-5.33V73.65h-6Z"/><path class="cls-1" d="M393.81,103.16l3.41,3.63c-3.33,3.63-10.07,5.92-15.4,5.92-10.22,0-19.4-8.37-19.4-20.14,0-11.4,8.59-19.91,18.88-19.91,11.55,0,18.14,8.74,18.14,22.14H368.12c.81,7.48,6.07,13,13.62,13C386.26,107.75,391.44,105.75,393.81,103.16ZM368.2,89.83H394c-.74-6.88-4.81-12.21-12.44-12.21C374.71,77.62,369.23,82.43,368.2,89.83Z"/><path class="cls-1" d="M381.82,112.82a19.44,19.44,0,0,1-13.61-5.69,20.37,20.37,0,0,1-5.9-14.56c0-11.23,8.34-20,19-20,5.63,0,10.3,2.1,13.49,6.08s4.76,9.48,4.76,16.16v.11h-31.3c.88,7.62,6.29,12.73,13.5,12.73,4.46,0,9.61-2,12-4.55l.08-.09.08.09,3.48,3.7-.07.08C393.71,110.77,386.79,112.82,381.82,112.82Zm-.52-40.05c-10.52,0-18.77,8.7-18.77,19.8s8.65,20,19.28,20c5.61,0,12.14-2.49,15.25-5.81l-3.25-3.46c-2.45,2.59-7.6,4.54-12.07,4.54-7.36,0-12.88-5.25-13.73-13.05v-.12h31.33C399.29,81,392.56,72.77,381.3,72.77Zm12.78,17.17h-26l0-.13c1-7.36,6.43-12.31,13.44-12.31s11.72,4.6,12.55,12.31Zm-25.76-.22h25.51c-.85-7.51-5.45-12-12.31-12S369.38,82.54,368.33,89.72Z"/><path class="cls-1" d="M406.47,92.64a20.16,20.16,0,0,1,19.84-20,19.72,19.72,0,0,1,13.62,5.63l-3.85,3.78a13.31,13.31,0,0,0-9.77-4.44c-7.62,0-14,6.88-14,15s6.37,15.1,14,15.1a13.46,13.46,0,0,0,10-4.66l3.85,3.78a19.55,19.55,0,0,1-13.84,5.85A20.23,20.23,0,0,1,406.47,92.64Z"/><path class="cls-1" d="M426.31,112.82a20.14,20.14,0,0,1,0-40.27A19.79,19.79,0,0,1,440,78.2l.08.08-4,3.94-.08-.08a13.1,13.1,0,0,0-9.69-4.41c-7.52,0-13.88,6.83-13.88,14.92s6.36,15,13.88,15a13.27,13.27,0,0,0,9.91-4.63l.08-.09.08.08,3.93,3.86-.08.08A19.62,19.62,0,0,1,426.31,112.82Zm0-40.05a19.91,19.91,0,0,0,0,39.83A19.39,19.39,0,0,0,440,106.86l-3.69-3.62a13.48,13.48,0,0,1-10,4.61c-7.64,0-14.1-7-14.1-15.21s6.46-15.14,14.1-15.14a13.31,13.31,0,0,1,9.78,4.39l3.69-3.61A19.55,19.55,0,0,0,426.31,72.77Z"/><path class="cls-1" d="M136,112H33a32.9,32.9,0,1,1,0-65.81h.9A55.92,55.92,0,0,1,140.39,34.11,39,39,0,0,1,136,112ZM33,50.94a28.11,28.11,0,1,0,0,56.23H136a34.26,34.26,0,0,0,2.6-68.42l-1.5-.11-.55-1.4A51.13,51.13,0,0,0,38.31,49L38,51.29l-2.29-.22C34.79,51,33.88,50.94,33,50.94Z"/><path class="cls-1" d="M136,112.07H33a33,33,0,0,1,0-66h.8A56,56,0,0,1,140.47,34,39.16,39.16,0,0,1,136,112.07ZM33,46.26a32.79,32.79,0,0,0,0,65.58H136a38.94,38.94,0,0,0,4.43-77.62h-.07l0-.06A55.81,55.81,0,0,0,34,46.18l0,.09H33Zm102.94,61H33a28.23,28.23,0,0,1,0-56.45c.87,0,1.78,0,2.7.13l2.18.21L38.2,49a51.24,51.24,0,0,1,98.41-11.8l.53,1.33,1.43.11A34.37,34.37,0,0,1,136,107.28ZM33,51.05a28,28,0,0,0,0,56H136a34.15,34.15,0,0,0,2.59-68.2L137,38.74l-.58-1.46A51,51,0,0,0,38.42,49l-.33,2.38-2.39-.23C34.78,51.1,33.88,51.05,33,51.05Z"/><polygon class="cls-1" points="101.3 50.71 101.3 27.64 73.82 27.64 73.82 50.71 50.75 50.71 50.75 78.19 73.82 78.19 73.82 101.26 99.15 101.26 87.33 84.23 75.97 100.07 75.97 76.28 64.52 76.28 51.75 76.28 51.55 76 67.61 64.69 51.45 53.1 75.97 53.1 75.97 42.16 75.97 28.82 75.97 28.58 76.31 28.58 76.49 28.58 87.51 44.23 98.75 28.58 99.09 28.58 99.15 28.58 99.15 28.62 99.15 53.1 109.68 53.1 123.66 53.1 123.66 53.56 107.61 64.87 123.32 76.14 123.22 76.28 99.15 76.28 99.15 87.33 99.15 101.26 101.3 101.26 101.3 78.19 124.37 78.19 124.37 50.71 101.3 50.71"/><polygon class="cls-1" points="99.15 28.58 99.09 28.58 99.15 28.62 99.15 28.58"/><polygon class="cls-1" points="75.97 28.58 75.97 28.82 76.31 28.58 75.97 28.58"/><path class="cls-1" d="M87.51,44.23l-11-15.65h-.18l-.34.24V42.16l8.6,6.17Zm-11.1-2.3V29.24L87,44.23l-2.5,3.49Z"/><path class="cls-1" d="M76.41,29.24V41.93l8.05,5.78L87,44.23Zm7.95,17.85-7.5-5.39V30.65l9.56,13.58Z"/><path class="cls-1" d="M89.88,80.68l-2.55,3.55,11.81,17V87.33ZM98.7,99.84,87.88,84.23,90,81.3l8.72,6.26Z"/><path class="cls-1" d="M87.88,84.23,98.7,99.84V87.56L90,81.3Zm10.38,3.55V98.41L88.43,84.24l1.66-2.32Z"/><path class="cls-1" d="M107.61,64.87l16.05-11.31V53.1h-14l-6.28,8.75Zm2.3-11.33h13L107.61,64.33,104,61.75Z"/><path class="cls-1" d="M107.61,64.33l15.31-10.78h-13L104,61.75ZM110.14,54h11.38l-13.9,9.79-3-2.13Z"/><path class="cls-1" d="M67.61,64.69,51.55,76l.19.27H64.51l6.54-9.11ZM64.29,75.83H52.57l15-10.59,2.83,2Z"/><path class="cls-1" d="M67.61,65.24l-15,10.59H64.29l6.15-8.56ZM64.06,75.38H54l13.63-9.6,2.21,1.58Z"/><path class="cls-1" d="M99.15,87.33V76.28h24.08l.09-.13L107.61,64.87l-4.21-3,6.28-8.75H99.15V28.62l-.06,0h-.35L87.51,44.23l-2.95,4.11L76,42.16V53.1H51.45l16.16,11.6,3.44,2.47-6.54,9.11H76v23.79L87.34,84.23l2.55-3.55ZM76.41,98.68V75.83h-11l6.29-8.77L52.84,53.54H76.41V43L84.67,49l14-19.55V53.54h10.11l-6,8.41,19.34,13.88H98.7V86.46l-8.92-6.4Z"/><path class="cls-1" d="M98.7,75.83h23.41L102.78,62l6-8.41H98.7V29.4L84.67,49,76.41,43V53.54H52.84L71.67,67.06l-6.29,8.77h11V98.68L89.78,80.06l8.92,6.4Zm-.45.45v9.32L90.4,80l-.72-.52-.52.72-2.55,3.55L76.86,97.3V75.38H66.25l5.53-7.7L72.3,67l-.72-.52L68.13,64,54.22,54H76.86V43.9L84,49.06l.72.52.52-.72,2.95-4.1,10-14V54h9.69l-5.27,7.34-.52.72.72.52,4.21,3,13.64,9.79H98.26Z"/></g></g></svg>